<svg width="24" height="24" viewBox="0 0 24 24" fill="none" xmlns="http://www.w3.org/2000/svg">
<path fill-rule="evenodd" clip-rule="evenodd" d="M11.47 3.46995C11.6106 3.3295 11.8013 3.25061 12 3.25061C12.1988 3.25061 12.3894 3.3295 12.53 3.46995L18.53 9.46995C18.6037 9.53861 18.6628 9.62141 18.7038 9.71341C18.7448 9.80541 18.7668 9.90473 18.7686 10.0054C18.7704 10.1061 18.7518 10.2062 18.7141 10.2995C18.6764 10.3929 18.6203 10.4778 18.549 10.549C18.4778 10.6202 18.393 10.6764 18.2996 10.7141C18.2062 10.7518 18.1062 10.7703 18.0055 10.7685C17.9048 10.7668 17.8055 10.7447 17.7135 10.7037C17.6215 10.6627 17.5387 10.6036 17.47 10.53L12.75 5.80995V20C12.75 20.1989 12.671 20.3896 12.5303 20.5303C12.3897 20.6709 12.1989 20.75 12 20.75C11.8011 20.75 11.6103 20.6709 11.4697 20.5303C11.329 20.3896 11.25 20.1989 11.25 20V5.80995L6.53 10.53C6.46134 10.6036 6.37854 10.6627 6.28654 10.7037C6.19454 10.7447 6.09523 10.7668 5.99452 10.7685C5.89382 10.7703 5.79379 10.7518 5.7004 10.7141C5.60701 10.6764 5.52218 10.6202 5.45096 10.549C5.37974 10.4778 5.3236 10.3929 5.28588 10.2995C5.24816 10.2062 5.22963 10.1061 5.23141 10.0054C5.23319 9.90473 5.25523 9.80541 5.29622 9.71341C5.33721 9.62141 5.39631 9.53861 5.47 9.46995L11.47 3.46995Z" fill="black"/>
</svg>
